<?xml version="1.0" encoding="UTF-8"?>
<svg version="1.1" xmlns="http://www.w3.org/2000/svg" width="50" height="50">
<path d="M0 0 C1.62463842 -0.05395478 3.24978541 -0.09277195 4.875 -0.125 C6.23238281 -0.15980469 6.23238281 -0.15980469 7.6171875 -0.1953125 C10 0 10 0 12 2 C12.66 2 13.32 2 14 2 C14.25394531 2.67546875 14.50789063 3.3509375 14.76953125 4.046875 C15.11371094 4.93890625 15.45789062 5.8309375 15.8125 6.75 C16.14894531 7.63171875 16.48539063 8.5134375 16.83203125 9.421875 C17.97101794 11.93602622 19.31633682 13.82994523 21 16 C21.6875 18.25 21.6875 18.25 22 20 C22.99 20 23.98 20 25 20 C25 20.99 25 21.98 25 23 C24.01 23.33 23.02 23.66 22 24 C22.495 28.455 22.495 28.455 23 33 C20.04335481 34.4783226 17.25770263 34.06032783 14 34 C14 34.66 14 35.32 14 36 C8.37209302 36.12790698 8.37209302 36.12790698 6 35.3125 C3.78029542 34.76518727 3.78029542 34.76518727 1.1875 36.4375 C-2.47614732 38.23340555 -4.97300851 38.24161949 -9 38 C-9.33 37.34 -9.66 36.68 -10 36 C-10.99 35.67 -11.98 35.34 -13 35 C-13.33 32.36 -13.66 29.72 -14 27 C-15.65 27 -17.3 27 -19 27 C-19.91222891 23.92122743 -20.32903218 21.20806377 -20 18 C-18.625 16.1875 -18.625 16.1875 -17 15 C-16.34 15 -15.68 15 -15 15 C-15.33 14.01 -15.66 13.02 -16 12 C-13.94766315 9.7522025 -12.99332739 8.9977758 -10 8 C-6.776062 6.63226873 -6.04194517 6.06291775 -4 3 C-3.01 2.67 -2.02 2.34 -1 2 C-0.67 1.34 -0.34 0.68 0 0 Z " fill="#BBDAD5" transform="translate(24,6)"/>
<path d="M0 0 C2.25672923 1.67642743 3.68761436 3.25675952 5.1875 5.625 C5.8475 4.305 6.5075 2.985 7.1875 1.625 C7.31125 2.429375 7.435 3.23375 7.5625 4.0625 C7.76875 4.908125 7.975 5.75375 8.1875 6.625 C8.8475 6.955 9.5075 7.285 10.1875 7.625 C9.8575 10.265 9.5275 12.905 9.1875 15.625 C10.1775 15.955 11.1675 16.285 12.1875 16.625 C12.1875 17.285 12.1875 17.945 12.1875 18.625 C13.5075 18.955 14.8275 19.285 16.1875 19.625 C15.5275 19.955 14.8675 20.285 14.1875 20.625 C13.1975 20.295 12.2075 19.965 11.1875 19.625 C10.8575 18.965 10.5275 18.305 10.1875 17.625 C9.5275 19.605 8.8675 21.585 8.1875 23.625 C1.16131022 25.1306121 -5.70702919 24.26557643 -12.8125 23.625 C-12.8125 19.995 -12.8125 16.365 -12.8125 12.625 C-11.8225 12.625 -10.8325 12.625 -9.8125 12.625 C-10.60367904 10.62516466 -10.60367904 10.62516466 -11.8125 8.625 C-12.8025 8.295 -13.7925 7.965 -14.8125 7.625 C-13.94431641 7.23054688 -13.94431641 7.23054688 -13.05859375 6.828125 C-10.70762485 5.5688234 -8.90571692 4.09608285 -6.875 2.375 C-3.19886521 -0.42651536 -3.19886521 -0.42651536 0 0 Z " fill="#8A7F7B" transform="translate(27.8125,13.375)"/>
<path d="M0 0 C1.62463842 -0.05395478 3.24978541 -0.09277195 4.875 -0.125 C6.23238281 -0.15980469 6.23238281 -0.15980469 7.6171875 -0.1953125 C10 0 10 0 12 2 C12.66 2 13.32 2 14 2 C14.25394531 2.67546875 14.50789063 3.3509375 14.76953125 4.046875 C15.11371094 4.93890625 15.45789063 5.8309375 15.8125 6.75 C16.14894531 7.63171875 16.48539063 8.5134375 16.83203125 9.421875 C17.97101794 11.93602622 19.31633682 13.82994523 21 16 C21.6875 18.25 21.6875 18.25 22 20 C22.99 20 23.98 20 25 20 C25 20.99 25 21.98 25 23 C24.01 23.33 23.02 23.66 22 24 C22 25.32 22 26.64 22 28 C14.62621789 25.86979628 14.62621789 25.86979628 13 23 C13.06564673 20.23736666 13.50642424 17.73710193 14 15 C13.113125 14.773125 12.22625 14.54625 11.3125 14.3125 C7.56619468 12.82811487 5.66270566 10.97596515 3 8 C-0.06369545 9.05040987 -2.00095662 10.00085851 -4.4375 12.1875 C-7 14 -7 14 -10.3125 13.75 C-11.199375 13.5025 -12.08625 13.255 -13 13 C-13 11.33333333 -13 9.66666667 -13 8 C-11.329375 7.87625 -11.329375 7.87625 -9.625 7.75 C-8.42875 7.5025 -7.2325 7.255 -6 7 C-4.69934079 5.06616713 -4.69934079 5.06616713 -4 3 C-3.01 2.67 -2.02 2.34 -1 2 C-0.67 1.34 -0.34 0.68 0 0 Z " fill="#C9E6E1" transform="translate(24,6)"/>
<path d="M0 0 C4.01814445 1.58856874 7.16204414 3.49129199 9.6875 7.0625 C10.32248843 10.48008 10.25522131 13.63681802 9.6875 17.0625 C9.3575 17.3925 9.0275 17.7225 8.6875 18.0625 C7.0375 18.0625 5.3875 18.0625 3.6875 18.0625 C3.6875 14.7625 3.6875 11.4625 3.6875 8.0625 C1.0475 8.0625 -1.5925 8.0625 -4.3125 8.0625 C-4.3125 11.3625 -4.3125 14.6625 -4.3125 18.0625 C-6.2925 18.0625 -8.2725 18.0625 -10.3125 18.0625 C-10.3125 15.0925 -10.3125 12.1225 -10.3125 9.0625 C-9.6525 8.7325 -8.9925 8.4025 -8.3125 8.0625 C-8.02375 7.27875 -7.735 6.495 -7.4375 5.6875 C-5.84521313 1.97216397 -4.16321015 0.11251919 0 0 Z " fill="#F8F7EC" transform="translate(26.3125,17.9375)"/>
<path d="M0 0 C3.3502463 3.81234923 5.16974789 7.33285711 7 12 C7.99 12 8.98 12 10 12 C10 12.99 10 13.98 10 15 C9.01 15.33 8.02 15.66 7 16 C7 17.32 7 18.64 7 20 C-0.37378211 17.86979628 -0.37378211 17.86979628 -2 15 C-1.93435327 12.23736666 -1.49357576 9.73710193 -1 7 C-1.99 6.67 -2.98 6.34 -4 6 C-4 4.35 -4 2.7 -4 1 C-3.01 1.33 -2.02 1.66 -1 2 C-0.67 1.34 -0.34 0.68 0 0 Z " fill="#C1E5DF" transform="translate(39,14)"/>
<path d="M0 0 C2.25672923 1.67642743 3.68761436 3.25675952 5.1875 5.625 C5.8475 4.305 6.5075 2.985 7.1875 1.625 C7.31125 2.429375 7.435 3.23375 7.5625 4.0625 C7.76875 4.908125 7.975 5.75375 8.1875 6.625 C8.8475 6.955 9.5075 7.285 10.1875 7.625 C10.1875 9.275 10.1875 10.925 10.1875 12.625 C3.54246957 8.91911765 3.54246957 8.91911765 1 6.8125 C-0.74155787 5.40314264 -0.74155787 5.40314264 -2.875 5.8125 C-6.63185856 7.38795682 -8.2315973 8.97676299 -9.8125 12.625 C-10.080625 11.985625 -10.34875 11.34625 -10.625 10.6875 C-11.69917752 8.29368314 -11.69917752 8.29368314 -14.8125 7.625 C-13.94431641 7.23054688 -13.94431641 7.23054688 -13.05859375 6.828125 C-10.70762485 5.5688234 -8.90571692 4.09608285 -6.875 2.375 C-3.19886521 -0.42651536 -3.19886521 -0.42651536 0 0 Z " fill="#A05058" transform="translate(27.8125,13.375)"/>
<path d="M0 0 C2 3 2 3 2 6 C-0.3397357 8.4941345 -2.98738437 10.39111208 -6 12 C-9.5 11.875 -9.5 11.875 -12 11 C-12 9.33333333 -12 7.66666667 -12 6 C-10.329375 5.87625 -10.329375 5.87625 -8.625 5.75 C-7.42875 5.5025 -6.2325 5.255 -5 5 C-3.69934079 3.06616713 -3.69934079 3.06616713 -3 1 C-2.01 0.67 -1.02 0.34 0 0 Z " fill="#C1E4DF" transform="translate(23,8)"/>
<path d="M0 0 C1.98 0 3.96 0 6 0 C6 2.97 6 5.94 6 9 C4.02 9 2.04 9 0 9 C0 6.03 0 3.06 0 0 Z " fill="#AFADBE" transform="translate(23,27)"/>
<path d="M0 0 C0.66 0.33 1.32 0.66 2 1 C2 1.66 2 2.32 2 3 C3.65 3.33 5.3 3.66 7 4 C7 5.32 7 6.64 7 8 C2.38 8 -2.24 8 -7 8 C-7 7.67 -7 7.34 -7 7 C-5.02 6.67 -3.04 6.34 -1 6 C-0.67 4.02 -0.34 2.04 0 0 Z " fill="#F1EEE6" transform="translate(37,30)"/>
<path d="M0 0 C2.625 0.625 2.625 0.625 5 2 C5.33 3.32 5.66 4.64 6 6 C2.37 6 -1.26 6 -5 6 C-3 2 -3 2 0 0 Z " fill="#F6F4EB" transform="translate(12,20)"/>
<path d="M0 0 C0.99 0.33 1.98 0.66 3 1 C2.67 2.65 2.34 4.3 2 6 C-0.64 6 -3.28 6 -6 6 C-6 6.66 -6 7.32 -6 8 C-7.98 8 -9.96 8 -12 8 C-12.66 6.68 -13.32 5.36 -14 4 C-9.38 3.67 -4.76 3.34 0 3 C0 2.01 0 1.02 0 0 Z " fill="#96A2A0" transform="translate(44,34)"/>
<path d="M0 0 C0.33 0.99 0.66 1.98 1 3 C0.01 3.33 -0.98 3.66 -2 4 C-2 5.32 -2 6.64 -2 8 C-4.875 7.3125 -4.875 7.3125 -8 6 C-9.375 3.375 -9.375 3.375 -10 1 C-6.7 1.33 -3.4 1.66 0 2 C0 1.34 0 0.68 0 0 Z " fill="#ABC8C3" transform="translate(48,26)"/>
<path d="M0 0 C1.65 0.33 3.3 0.66 5 1 C4.38511719 1.65355469 4.38511719 1.65355469 3.7578125 2.3203125 C0.38909998 6.04362634 -1.78240479 9.00785965 -3 14 C-4.00058075 10.99825776 -4.31241431 9.12414314 -4 6 C-2.625 4.1875 -2.625 4.1875 -1 3 C-0.34 3 0.32 3 1 3 C0.67 2.01 0.34 1.02 0 0 Z " fill="#9EAAA6" transform="translate(8,18)"/>
<path d="M0 0 C2.875 -0.125 2.875 -0.125 6 0 C6.66 0.66 7.32 1.32 8 2 C8.66 2 9.32 2 10 2 C10.33 2.99 10.66 3.98 11 5 C8.03 5 5.06 5 2 5 C2 3.68 2 2.36 2 1 C1.34 0.67 0.68 0.34 0 0 Z " fill="#99B5B0" transform="translate(28,6)"/>
<path d="M0 0 C1.65 0 3.3 0 5 0 C5 0.99 5 1.98 5 3 C4.34 3 3.68 3 3 3 C3 4.65 3 6.3 3 8 C0.9375 6.25 0.9375 6.25 -1 4 C-0.75 1.75 -0.75 1.75 0 0 Z " fill="#BBBDB8" transform="translate(31,12)"/>
<path d="M0 0 C0.66 0.99 1.32 1.98 2 3 C-3.52841596 7.76058041 -3.52841596 7.76058041 -7 8 C-7.66 7.34 -8.32 6.68 -9 6 C-8.38125 5.731875 -7.7625 5.46375 -7.125 5.1875 C-4.7004767 4.04443152 -4.7004767 4.04443152 -3 1 C-2.01 0.67 -1.02 0.34 0 0 Z " fill="#B6CCC9" transform="translate(23,8)"/>
<path d="M0 0 C0.33 0 0.66 0 1 0 C1.02689216 1.47906892 1.04634621 2.95827483 1.0625 4.4375 C1.07410156 5.26121094 1.08570313 6.08492187 1.09765625 6.93359375 C1 9 1 9 0 10 C-1.66617115 10.04063832 -3.33388095 10.042721 -5 10 C-4.67 9.34 -4.34 8.68 -4 8 C-3.01 8 -2.02 8 -1 8 C-1.020625 6.865625 -1.04125 5.73125 -1.0625 4.5625 C-1 1 -1 1 0 0 Z " fill="#E3DED4" transform="translate(35,26)"/>
<path d="M0 0 C0.66 0.66 1.32 1.32 2 2 C-1.43515002 2.62457273 -4.49064814 3 -8 3 C-8.33 2.01 -8.66 1.02 -9 0 C-5.64961743 -0.83759564 -3.2704774 -1.24052591 0 0 Z " fill="#E7F8F5" transform="translate(46,26)"/>
<path d="M0 0 C0.1875 2.625 0.1875 2.625 0 5 C-0.99 5 -1.98 5 -3 5 C-3 3.35 -3 1.7 -3 0 C-4.65 0 -6.3 0 -8 0 C-8 -0.33 -8 -0.66 -8 -1 C-3.375 -2.25 -3.375 -2.25 0 0 Z " fill="#CFF1ED" transform="translate(39,12)"/>
<path d="M0 0 C0.99 0.33 1.98 0.66 3 1 C2.67 2.65 2.34 4.3 2 6 C-0.64 5.67 -3.28 5.34 -6 5 C-6 4.67 -6 4.34 -6 4 C-4.02 3.67 -2.04 3.34 0 3 C0 2.01 0 1.02 0 0 Z " fill="#312422" transform="translate(44,34)"/>
<path d="M0 0 C2 1 2 1 2 1 Z " fill="#000000" transform="translate(25,43)"/>
<path d="M0 0 C2 1 2 1 2 1 Z " fill="#000000" transform="translate(28,41)"/>
<path d="" fill="#000000" transform="translate(0,0)"/>
<path d="" fill="#000000" transform="translate(0,0)"/>
<path d="" fill="#000000" transform="translate(0,0)"/>
<path d="" fill="#000000" transform="translate(0,0)"/>
<path d="" fill="#000000" transform="translate(0,0)"/>
<path d="" fill="#000000" transform="translate(0,0)"/>
<path d="" fill="#000000" transform="translate(0,0)"/>
<path d="" fill="#000000" transform="translate(0,0)"/>
<path d="" fill="#000000" transform="translate(0,0)"/>
<path d="" fill="#000000" transform="translate(0,0)"/>
<path d="" fill="#000000" transform="translate(0,0)"/>
<path d="" fill="#000000" transform="translate(0,0)"/>
<path d="" fill="#000000" transform="translate(0,0)"/>
<path d="" fill="#000000" transform="translate(0,0)"/>
<path d="" fill="#000000" transform="translate(0,0)"/>
<path d="" fill="#000000" transform="translate(0,0)"/>
<path d="" fill="#000000" transform="translate(0,0)"/>
<path d="" fill="#000000" transform="translate(0,0)"/>
<path d="" fill="#000000" transform="translate(0,0)"/>
<path d="" fill="#000000" transform="translate(0,0)"/>
</svg>
