<?xml version="1.0" encoding="UTF-8"?>
<svg version="1.1" xmlns="http://www.w3.org/2000/svg" width="50" height="50">
<path d="M0 0 C2.31 0 4.62 0 7 0 C7 0.66 7 1.32 7 2 C7.8971875 2.37125 7.8971875 2.37125 8.8125 2.75 C12.55689531 4.88965447 14.22360943 8.17392801 16 12 C16.99 12 17.98 12 19 12 C19.06058594 12.73605469 19.12117188 13.47210938 19.18359375 14.23046875 C19.26738281 15.20628906 19.35117187 16.18210937 19.4375 17.1875 C19.51871094 18.15042969 19.59992187 19.11335938 19.68359375 20.10546875 C19.94342858 22.9773396 19.94342858 22.9773396 20.59375 25.65625 C21.14800512 28.85387571 20.17436473 31.02954804 19 34 C16.69 34 14.38 34 12 34 C12 34.66 12 35.32 12 36 C8.4780279 36.08004482 5.38018531 36.04005702 2 35 C2 35.66 2 36.32 2 37 C-4.00409138 37.31477761 -7.89509885 37.44925754 -13 34 C-16.69523952 33.28076792 -16.69523952 33.28076792 -20 33 C-20.66 31.02 -21.32 29.04 -22 27 C-21.34 26.34 -20.68 25.68 -20 25 C-20.66 24.34 -21.32 23.68 -22 23 C-22 22.01 -22 21.02 -22 20 C-22.66 19.67 -23.32 19.34 -24 19 C-23.113125 18.278125 -22.22625 17.55625 -21.3125 16.8125 C-18.37086341 14.36461329 -15.66986956 11.74403261 -13 9 C-11 7 -11 7 -8.0625 6.0625 C-5.0771818 5.02677736 -4.05089795 4.25598774 -2 2 C-1.34 2 -0.68 2 0 2 C0 1.34 0 0.68 0 0 Z " fill="#0A9594" transform="translate(26,6)"/>
<path d="M0 0 C2.31 0 4.62 0 7 0 C7 0.66 7 1.32 7 2 C7.8971875 2.37125 7.8971875 2.37125 8.8125 2.75 C12.55689531 4.88965447 14.22360943 8.17392801 16 12 C16.99 12 17.98 12 19 12 C19.06058594 12.73605469 19.12117188 13.47210938 19.18359375 14.23046875 C19.26738281 15.20628906 19.35117187 16.18210937 19.4375 17.1875 C19.51871094 18.15042969 19.59992187 19.11335938 19.68359375 20.10546875 C19.94342858 22.9773396 19.94342858 22.9773396 20.59375 25.65625 C21.14800512 28.85387571 20.17436473 31.02954804 19 34 C16.69 34 14.38 34 12 34 C12 34.66 12 35.32 12 36 C8.4780279 36.08004482 5.38018531 36.04005702 2 35 C2 35.66 2 36.32 2 37 C-4.00409138 37.31477761 -7.89509885 37.44925754 -13 34 C-16.69523952 33.28076792 -16.69523952 33.28076792 -20 33 C-20.66 31.02 -21.32 29.04 -22 27 C-21.34 26.34 -20.68 25.68 -20 25 C-20.66 24.34 -21.32 23.68 -22 23 C-22 22.01 -22 21.02 -22 20 C-22.66 19.67 -23.32 19.34 -24 19 C-20.36531199 15.95700539 -16.70675194 12.95529797 -13 10 C-13.03480469 11.53720703 -13.03480469 11.53720703 -13.0703125 13.10546875 C-13.08908036 14.46613851 -13.10727947 15.8268162 -13.125 17.1875 C-13.14175781 17.86103516 -13.15851562 18.53457031 -13.17578125 19.22851562 C-13.22469368 24.24203966 -12.20130809 27.59738381 -10 32 C-7.72844502 31.91297874 -5.45769257 31.80480478 -3.1875 31.6875 C-1.29064453 31.60048828 -1.29064453 31.60048828 0.64453125 31.51171875 C4.11953429 30.98177067 4.88377324 30.62243383 7 28 C7.66 28 8.32 28 9 28 C9.90238747 25.29283758 10.11851302 23.76223232 10.09765625 20.98828125 C10.09443359 20.23095703 10.09121094 19.47363281 10.08789062 18.69335938 C10.07951172 17.90767578 10.07113281 17.12199219 10.0625 16.3125 C10.05798828 15.51521484 10.05347656 14.71792969 10.04882812 13.89648438 C10.0370585 11.93095743 10.01912348 9.96546915 10 8 C4.72 7.67 -0.56 7.34 -6 7 C-4.68 5.35 -3.36 3.7 -2 2 C-1.34 2 -0.68 2 0 2 C0 1.34 0 0.68 0 0 Z " fill="#B9D2CC" transform="translate(26,6)"/>
<path d="M0 0 C2.0625 1.4375 2.0625 1.4375 3 4 C3.21821838 7.0186876 3.17422184 9.98015475 3 13 C1.35 13.66 -0.3 14.32 -2 15 C-2 11.04 -2 7.08 -2 3 C-3.32 4.32 -4.64 5.64 -6 7 C-5.34 7.33 -4.68 7.66 -4 8 C-4.33 8.66 -4.66 9.32 -5 10 C-6.65 9.67 -8.3 9.34 -10 9 C-10 11.64 -10 14.28 -10 17 C-3.07 17.495 -3.07 17.495 4 18 C4 18.99 4 19.98 4 21 C-1.28 21.33 -6.56 21.66 -12 22 C-12.78307782 17.3015331 -13.07299872 13.94753157 -12.75 9.3125 C-12.68296875 8.19488281 -12.6159375 7.07726562 -12.546875 5.92578125 C-12 3 -12 3 -10.734375 1.1328125 C-7.43299321 -1.02349543 -3.77526912 -0.60460548 0 0 Z " fill="#2AA2A0" transform="translate(27,17)"/>
<path d="M0 0 C0.33 0 0.66 0 1 0 C1 6.27 1 12.54 1 19 C-0.32 19.33 -1.64 19.66 -3 20 C-3 20.66 -3 21.32 -3 22 C-1.35 22 0.3 22 2 22 C1.67 22.66 1.34 23.32 1 24 C-1.31 23.67 -3.62 23.34 -6 23 C-6.66 21.02 -7.32 19.04 -8 17 C-7.34 16.34 -6.68 15.68 -6 15 C-6.66 14.34 -7.32 13.68 -8 13 C-8 12.01 -8 11.02 -8 10 C-8.66 9.67 -9.32 9.34 -10 9 C-9.0925 8.2575 -8.185 7.515 -7.25 6.75 C-5.29019919 5.12378231 -3.4934645 3.4934645 -1.6875 1.6875 C-1.130625 1.130625 -0.57375 0.57375 0 0 Z " fill="#BFD6CF" transform="translate(12,16)"/>
<path d="M0 0 C2.31 0 4.62 0 7 0 C7 0.66 7 1.32 7 2 C7.61875 2.28875 8.2375 2.5775 8.875 2.875 C11 4 11 4 13 6 C13.22705078 7.97119141 13.22705078 7.97119141 13.1953125 10.3515625 C13.18886719 11.20234375 13.18242188 12.053125 13.17578125 12.9296875 C13.15902344 13.81914062 13.14226563 14.70859375 13.125 15.625 C13.11597656 16.5221875 13.10695313 17.419375 13.09765625 18.34375 C13.0740497 20.56276586 13.0411231 22.78125077 13 25 C12.67 25 12.34 25 12 25 C11.93941406 24.10796875 11.87882812 23.2159375 11.81640625 22.296875 C11.69072266 20.54117187 11.69072266 20.54117187 11.5625 18.75 C11.48128906 17.58984375 11.40007813 16.4296875 11.31640625 15.234375 C11.0644608 11.84154434 11.0644608 11.84154434 10 8 C4.72 7.67 -0.56 7.34 -6 7 C-4.68 5.35 -3.36 3.7 -2 2 C-1.34 2 -0.68 2 0 2 C0 1.34 0 0.68 0 0 Z " fill="#C1E4DE" transform="translate(26,6)"/>
<path d="M0 0 C0.66 0 1.32 0 2 0 C2 3.96 2 7.92 2 12 C2.99 12.33 3.98 12.66 5 13 C5.66 13.66 6.32 14.32 7 15 C4.85423363 15.02685938 2.70837355 15.04633088 0.5625 15.0625 C-0.63246094 15.07410156 -1.82742187 15.08570313 -3.05859375 15.09765625 C-6 15 -6 15 -7 14 C-7.07179964 12.48071962 -7.08392007 10.95832518 -7.0625 9.4375 C-7.05347656 8.61121094 -7.04445313 7.78492188 -7.03515625 6.93359375 C-7.02355469 6.29550781 -7.01195312 5.65742188 -7 5 C-4.03 5.495 -4.03 5.495 -1 6 C-1.33 5.67 -1.66 5.34 -2 5 C-2 2 -2 2 0 0 Z " fill="#00A8A8" transform="translate(23,20)"/>
<path d="M0 0 C1.9375 0.6875 1.9375 0.6875 2.9375 2.6875 C3.97390625 2.66429687 5.0103125 2.64109375 6.078125 2.6171875 C7.44790944 2.59842333 8.8177017 2.58022382 10.1875 2.5625 C10.86941406 2.54574219 11.55132812 2.52898438 12.25390625 2.51171875 C15.9983235 2.47536518 18.76102727 2.60805651 21.9375 4.6875 C19.6275 5.0175 17.3175 5.3475 14.9375 5.6875 C14.9375 6.3475 14.9375 7.0075 14.9375 7.6875 C13.35503293 7.76903933 11.77133727 7.82693557 10.1875 7.875 C9.30578125 7.90980469 8.4240625 7.94460937 7.515625 7.98046875 C4.46139051 7.63339665 3.13185701 6.80495198 0.9375 4.6875 C0.9375 4.0275 0.9375 3.3675 0.9375 2.6875 C-0.7125 2.6875 -2.3625 2.6875 -4.0625 2.6875 C-4.0625 2.0275 -4.0625 1.3675 -4.0625 0.6875 C-2.0625 -0.3125 -2.0625 -0.3125 0 0 Z " fill="#CAEEE9" transform="translate(13.0625,35.3125)"/>
<path d="M0 0 C0.78552246 0.01047363 1.57104492 0.02094727 2.38037109 0.03173828 C3.23115234 0.03818359 4.08193359 0.04462891 4.95849609 0.05126953 C6.29267578 0.07640625 6.29267578 0.07640625 7.65380859 0.10205078 C8.99958984 0.11558594 8.99958984 0.11558594 10.37255859 0.12939453 C12.59157445 0.15300108 14.81005937 0.18592768 17.02880859 0.22705078 C17.02880859 0.55705078 17.02880859 0.88705078 17.02880859 1.22705078 C11.08880859 1.55705078 5.14880859 1.88705078 -0.97119141 2.22705078 C-0.64119141 2.88705078 -0.31119141 3.54705078 0.02880859 4.22705078 C-0.30119141 5.21705078 -0.63119141 6.20705078 -0.97119141 7.22705078 C-1.24033149 10.58062167 -1.41624945 13.93379676 -1.59228516 17.29345703 C-1.97119141 20.22705078 -1.97119141 20.22705078 -3.97119141 22.22705078 C-5.0861429 17.89299122 -4.95073505 13.98994721 -4.65869141 9.53955078 C-4.62324219 8.8634375 -4.58779297 8.18732422 -4.55126953 7.49072266 C-4.08324312 0.47032649 -4.08324312 0.47032649 0 0 Z " fill="#2F6665" transform="translate(16.97119140625,12.77294921875)"/>
<path d="M0 0 C0.33 0 0.66 0 1 0 C1 4.62 1 9.24 1 14 C0.34 14 -0.32 14 -1 14 C-1 12.68 -1 11.36 -1 10 C-2.65 9.67 -4.3 9.34 -6 9 C-6.33 9.99 -6.66 10.98 -7 12 C-7.33 11.34 -7.66 10.68 -8 10 C-8.66 9.67 -9.32 9.34 -10 9 C-9.0925 8.2575 -8.185 7.515 -7.25 6.75 C-5.29019919 5.12378231 -3.4934645 3.4934645 -1.6875 1.6875 C-1.130625 1.130625 -0.57375 0.57375 0 0 Z " fill="#C9DFDB" transform="translate(12,16)"/>
<path d="M0 0 C5.75 0.75 5.75 0.75 8 3 C8 3.99 8 4.98 8 6 C4.04 6 0.08 6 -4 6 C-4 5.01 -4 4.02 -4 3 C-2.68 2.67 -1.36 2.34 0 2 C0 1.34 0 0.68 0 0 Z " fill="#FAF8EF" transform="translate(35,32)"/>
<path d="M0 0 C-1.485 2.475 -1.485 2.475 -3 5 C-1.35 5 0.3 5 2 5 C1.67 5.66 1.34 6.32 1 7 C-1.31 6.67 -3.62 6.34 -6 6 C-6.66 4.02 -7.32 2.04 -8 0 C-5.13822943 -1.43088528 -3.06624227 -0.59991697 0 0 Z " fill="#807774" transform="translate(12,33)"/>
<path d="M0 0 C0.66 0 1.32 0 2 0 C2 3.63 2 7.26 2 11 C1.01 11 0.02 11 -1 11 C-1 10.34 -1 9.68 -1 9 C-1.66 9 -2.32 9 -3 9 C-3 8.34 -3 7.68 -3 7 C-3.66 6.67 -4.32 6.34 -5 6 C-3.35 5.67 -1.7 5.34 0 5 C-0.99 4.67 -1.98 4.34 -3 4 C-2 2 -2 2 0 0 Z " fill="#1B8C8B" transform="translate(23,20)"/>
<path d="M0 0 C1.32 0.33 2.64 0.66 4 1 C4 3.97 4 6.94 4 10 C2.68 10.33 1.36 10.66 0 11 C0 7.37 0 3.74 0 0 Z " fill="#EEEAE1" transform="translate(26,20)"/>
<path d="M0 0 C4.62 0 9.24 0 14 0 C14 0.99 14 1.98 14 3 C9.38 3 4.76 3 0 3 C0 2.01 0 1.02 0 0 Z " fill="#436563" transform="translate(17,35)"/>
<path d="M0 0 C3.75 -0.3125 3.75 -0.3125 7 0 C7 0.33 7 0.66 7 1 C5.02 1.66 3.04 2.32 1 3 C3.97 3.33 6.94 3.66 10 4 C10 4.33 10 4.66 10 5 C5.38 5 0.76 5 -4 5 C-2.68 3.35 -1.36 1.7 0 0 Z " fill="#D1F4EF" transform="translate(24,8)"/>
<path d="M0 0 C0 0.99 0 1.98 0 3 C-2.31 3 -4.62 3 -7 3 C-7 3.66 -7 4.32 -7 5 C-8.98 5 -10.96 5 -13 5 C-13.33 3.68 -13.66 2.36 -14 1 C-9.38 0.67 -4.76 0.34 0 0 Z " fill="#717775" transform="translate(45,37)"/>
<path d="M0 0 C0.99 0.33 1.98 0.66 3 1 C3 1.66 3 2.32 3 3 C5.97 3 8.94 3 12 3 C9 6 9 6 6.95703125 6.29296875 C4.97135417 6.1953125 2.98567708 6.09765625 1 6 C0.67 4.02 0.34 2.04 0 0 Z " fill="#3B918F" transform="translate(14,33)"/>
<path d="M0 0 C0 0.99 0 1.98 0 3 C-3.3 3 -6.6 3 -10 3 C-10.33 2.34 -10.66 1.68 -11 1 C-3.57142857 -1.42857143 -3.57142857 -1.42857143 0 0 Z " fill="#AFCDC9" transform="translate(28,40)"/>
<path d="M0 0 C0.33 0 0.66 0 1 0 C1 4.62 1 9.24 1 14 C0.67 14 0.34 14 0 14 C-0.07347656 13.04287109 -0.07347656 13.04287109 -0.1484375 12.06640625 C-0.22320312 11.24011719 -0.29796875 10.41382813 -0.375 9.5625 C-0.44460938 8.73878906 -0.51421875 7.91507813 -0.5859375 7.06640625 C-0.72257813 6.38449219 -0.85921875 5.70257812 -1 5 C-1.66 4.67 -2.32 4.34 -3 4 C-2.02727325 2.64664105 -1.0260734 1.31337396 0 0 Z " fill="#B3BEBA" transform="translate(12,16)"/>
<path d="M0 0 C1.9375 0.6875 1.9375 0.6875 2.9375 2.6875 C2.2775 3.3475 1.6175 4.0075 0.9375 4.6875 C0.9375 4.0275 0.9375 3.3675 0.9375 2.6875 C-0.7125 2.6875 -2.3625 2.6875 -4.0625 2.6875 C-4.0625 2.0275 -4.0625 1.3675 -4.0625 0.6875 C-2.0625 -0.3125 -2.0625 -0.3125 0 0 Z " fill="#F7F6F0" transform="translate(13.0625,35.3125)"/>
<path d="M0 0 C2 1 2 1 2 1 Z " fill="#000000" transform="translate(28,41)"/>
<path d="" fill="#000000" transform="translate(0,0)"/>
<path d="" fill="#000000" transform="translate(0,0)"/>
<path d="" fill="#000000" transform="translate(0,0)"/>
<path d="" fill="#000000" transform="translate(0,0)"/>
<path d="" fill="#000000" transform="translate(0,0)"/>
<path d="" fill="#000000" transform="translate(0,0)"/>
<path d="" fill="#000000" transform="translate(0,0)"/>
<path d="" fill="#000000" transform="translate(0,0)"/>
<path d="" fill="#000000" transform="translate(0,0)"/>
<path d="" fill="#000000" transform="translate(0,0)"/>
<path d="" fill="#000000" transform="translate(0,0)"/>
<path d="" fill="#000000" transform="translate(0,0)"/>
<path d="" fill="#000000" transform="translate(0,0)"/>
<path d="" fill="#000000" transform="translate(0,0)"/>
<path d="" fill="#000000" transform="translate(0,0)"/>
<path d="" fill="#000000" transform="translate(0,0)"/>
<path d="" fill="#000000" transform="translate(0,0)"/>
<path d="" fill="#000000" transform="translate(0,0)"/>
<path d="" fill="#000000" transform="translate(0,0)"/>
<path d="" fill="#000000" transform="translate(0,0)"/>
<path d="" fill="#000000" transform="translate(0,0)"/>
<path d="" fill="#000000" transform="translate(0,0)"/>
<path d="" fill="#000000" transform="translate(0,0)"/>
<path d="" fill="#000000" transform="translate(0,0)"/>
<path d="" fill="#000000" transform="translate(0,0)"/>
<path d="" fill="#000000" transform="translate(0,0)"/>
<path d="" fill="#000000" transform="translate(0,0)"/>
<path d="" fill="#000000" transform="translate(0,0)"/>
<path d="" fill="#000000" transform="translate(0,0)"/>
<path d="" fill="#000000" transform="translate(0,0)"/>
<path d="" fill="#000000" transform="translate(0,0)"/>
</svg>
