<?xml version="1.0" encoding="UTF-8"?>
<svg version="1.1" xmlns="http://www.w3.org/2000/svg" width="50" height="50">
<path d="M0 0 C4.50807645 0.21174298 5.60071624 1.41321624 8.75 4.5625 C9.265625 4.995625 9.78125 5.42875 10.3125 5.875 C12.14611289 8.02750209 12.21360804 9.81349122 12.75 12.5625 C13.71457834 13.92167857 14.71854629 15.25334721 15.75 16.5625 C18.79705882 21.78602941 18.79705882 21.78602941 18.625 24.625 C16.20169235 29.99089552 14.30088428 32.2187933 8.75 34.5625 C8.75 35.2225 8.75 35.8825 8.75 36.5625 C3.12209302 36.69040698 3.12209302 36.69040698 0.75 35.875 C-1.46970458 35.32768727 -1.46970458 35.32768727 -4.0625 37 C-7.76703691 38.81594947 -10.17309166 38.95451042 -14.25 38.5625 C-14.91 37.9025 -15.57 37.2425 -16.25 36.5625 C-16.91 36.2325 -17.57 35.9025 -18.25 35.5625 C-18.84355614 32.91389573 -18.99209269 30.27052678 -19.25 27.5625 C-20.9 27.5625 -22.55 27.5625 -24.25 27.5625 C-24.4726746 26.12715159 -24.67761906 24.68904475 -24.875 23.25 C-24.99101562 22.44949219 -25.10703125 21.64898438 -25.2265625 20.82421875 C-25.25 18.5625 -25.25 18.5625 -23.25 15.5625 C-23.25 14.5725 -23.25 13.5825 -23.25 12.5625 C-21.25 9.5625 -21.25 9.5625 -19.078125 9.078125 C-18.22734375 8.99046875 -17.3765625 8.9028125 -16.5 8.8125 C-12.62291267 8.21131736 -12.62291267 8.21131736 -9.609375 5.8828125 C-9.16078125 5.24085937 -8.7121875 4.59890625 -8.25 3.9375 C-5.78813965 0.53475624 -4.18916642 0.05386071 0 0 Z " fill="#C0DDD8" transform="translate(29.25,5.4375)"/>
<path d="M0 0 C2.96792533 0.60319346 4.06314979 2.33268104 6.171875 4.44140625 C6.6875 4.87453125 7.203125 5.30765625 7.734375 5.75390625 C9.56798789 7.90640834 9.63548304 9.69239747 10.171875 12.44140625 C11.13645334 13.80058482 12.14042129 15.13225346 13.171875 16.44140625 C16.21893382 21.66493566 16.21893382 21.66493566 16.046875 24.50390625 C13.62356735 29.86980177 11.72275928 32.09769955 6.171875 34.44140625 C6.171875 35.10140625 6.171875 35.76140625 6.171875 36.44140625 C4.191875 36.44140625 2.211875 36.44140625 0.171875 36.44140625 C-0.158125 35.78140625 -0.488125 35.12140625 -0.828125 34.44140625 C0.491875 34.44140625 1.811875 34.44140625 3.171875 34.44140625 C1.38961422 31.93003879 -0.0785303 30.61340229 -3.109375 29.91796875 C-7.85779988 29.38877682 -12.13957645 29.33096054 -16.828125 30.44140625 C-16.828125 28.46140625 -16.828125 26.48140625 -16.828125 24.44140625 C-16.168125 24.77140625 -15.508125 25.10140625 -14.828125 25.44140625 C-15.158125 26.76140625 -15.488125 28.08140625 -15.828125 29.44140625 C-14.5596875 28.76078125 -14.5596875 28.76078125 -13.265625 28.06640625 C-9.828125 26.44140625 -9.828125 26.44140625 -6.078125 25.44140625 C-2.56813739 24.7362288 -2.56813739 24.7362288 -0.828125 21.44140625 C-0.13498592 19.785574 0.53661924 18.12029646 1.171875 16.44140625 C0.511875 16.44140625 -0.148125 16.44140625 -0.828125 16.44140625 C-1.158125 15.45140625 -1.488125 14.46140625 -1.828125 13.44140625 C-5.28608674 12.11142096 -9.1722111 11.93354851 -12.828125 11.44140625 C-13.158125 12.76140625 -13.488125 14.08140625 -13.828125 15.44140625 C-13.828125 14.45140625 -13.828125 13.46140625 -13.828125 12.44140625 C-15.148125 12.11140625 -16.468125 11.78140625 -17.828125 11.44140625 C-17.828125 10.78140625 -17.828125 10.12140625 -17.828125 9.44140625 C-18.818125 9.11140625 -19.808125 8.78140625 -20.828125 8.44140625 C-19.796875 8.42078125 -18.765625 8.40015625 -17.703125 8.37890625 C-13.50500627 7.36323236 -13.30958617 7.13909176 -11.015625 3.87890625 C-7.84519819 -0.31396173 -5.0385939 -0.23666123 0 0 Z " fill="#B8D7D2" transform="translate(31.828125,5.55859375)"/>
<path d="M0 0 C4 6 4 6 3.8125 7.875 C2.16788896 12.17629042 0.90980791 14.48265825 -3.1875 16.8125 C-4.115625 17.204375 -5.04375 17.59625 -6 18 C-6 18.66 -6 19.32 -6 20 C-7.98 20 -9.96 20 -12 20 C-12.33 19.34 -12.66 18.68 -13 18 C-11.68 18 -10.36 18 -9 18 C-10.78226078 15.48863254 -12.2504053 14.17199604 -15.28125 13.4765625 C-20.02967488 12.94737057 -24.31145145 12.88955429 -29 14 C-29 12.02 -29 10.04 -29 8 C-28.01 8.495 -28.01 8.495 -27 9 C-27.33 10.32 -27.66 11.64 -28 13 C-27.21625 12.54625 -26.4325 12.0925 -25.625 11.625 C-21.16497069 9.62567651 -16.79725715 8.80586336 -12 8 C-12.99 8.99 -13.98 9.98 -15 11 C-12.61435923 10.42415568 -10.33317216 9.77772405 -8 9 C-8 6.36 -8 3.72 -8 1 C-5.36 1.33 -2.72 1.66 0 2 C0 1.34 0 0.68 0 0 Z " fill="#9A9290" transform="translate(44,22)"/>
<path d="M0 0 C5.76222149 -0.19207405 9.06866739 -0.19849946 13.75 3.3125 C15.44074109 5.59500047 15.22455452 7.23049425 15 10 C14.01 10.495 14.01 10.495 13 11 C12.4225 11.680625 11.845 12.36125 11.25 13.0625 C9 15 9 15 5.9375 15.25 C4.968125 15.1675 3.99875 15.085 3 15 C2.01 15 1.02 15 0 15 C0 14.34 0 13.68 0 13 C-0.639375 12.7525 -1.27875 12.505 -1.9375 12.25 C-4 11 -4 11 -4.8125 9 C-5 7 -5 7 -4 5 C-3.01 4.67 -2.02 4.34 -1 4 C-0.26676204 1.98491642 -0.26676204 1.98491642 0 0 Z " fill="#FBFAFA" transform="translate(19,17)"/>
<path d="M0 0 C2.3046875 1.42578125 2.3046875 1.42578125 4 3 C4 3.66 4 4.32 4 5 C2.948125 5.12375 1.89625 5.2475 0.8125 5.375 C-2.89427856 5.81897986 -2.89427856 5.81897986 -5.6875 7.1875 C-8 8 -8 8 -10.25 7.3125 C-12 6 -12 6 -13 3 C-13.99 2.34 -14.98 1.68 -16 1 C-10.65442488 -1.3914415 -5.62251566 -1.38243372 0 0 Z " fill="#C7ECE5" transform="translate(31,35)"/>
<path d="M0 0 C2.31 0.66 4.62 1.32 7 2 C6.67 2.99 6.34 3.98 6 5 C6.66 5.66 7.32 6.32 8 7 C6.68 7 5.36 7 4 7 C4 7.66 4 8.32 4 9 C4.99 9 5.98 9 7 9 C6.67 10.32 6.34 11.64 6 13 C3.36 13.66 0.72 14.32 -2 15 C-2.1875 12.125 -2.1875 12.125 -2 9 C-1.01 8.34 -0.02 7.68 1 7 C0.67 4.69 0.34 2.38 0 0 Z " fill="#C9ECE5" transform="translate(38,24)"/>
<path d="M0 0 C1.98 0 3.96 0 6 0 C6 0.66 6 1.32 6 2 C7.32 2.33 8.64 2.66 10 3 C10 3.99 10 4.98 10 6 C6.37 5.67 2.74 5.34 -1 5 C-0.67 3.35 -0.34 1.7 0 0 Z " fill="#DED7CF" transform="translate(8,15)"/>
<path d="M0 0 C0.33 1.32 0.66 2.64 1 4 C1.66 4 2.32 4 3 4 C3.33 2.68 3.66 1.36 4 0 C4.8125 2.6875 4.8125 2.6875 5 6 C2.9375 8.875 2.9375 8.875 0 11 C-3.3125 11.3125 -3.3125 11.3125 -6 11 C-3 9 -3 9 -1 8 C-1.66 7.34 -2.32 6.68 -3 6 C-2.34 5.34 -1.68 4.68 -1 4 C-0.3574765 1.93125966 -0.3574765 1.93125966 0 0 Z " fill="#DEDFDE" transform="translate(32,23)"/>
<path d="M0 0 C4 6 4 6 3.75 8 C3 10 3 10 1 13 C1 12.34 1 11.68 1 11 C0.01 11 -0.98 11 -2 11 C-1.34 8.69 -0.68 6.38 0 4 C-1.134375 3.87625 -2.26875 3.7525 -3.4375 3.625 C-4.613125 3.41875 -5.78875 3.2125 -7 3 C-7.33 2.34 -7.66 1.68 -8 1 C-5.36 1.33 -2.72 1.66 0 2 C0 1.34 0 0.68 0 0 Z " fill="#95928C" transform="translate(44,22)"/>
<path d="M0 0 C2.64 0 5.28 0 8 0 C8 0.33 8 0.66 8 1 C8.62648438 1.04898437 9.25296875 1.09796875 9.8984375 1.1484375 C10.71570312 1.22320312 11.53296875 1.29796875 12.375 1.375 C13.59316406 1.47941406 13.59316406 1.47941406 14.8359375 1.5859375 C17 2 17 2 19 4 C17.68 4.33 16.36 4.66 15 5 C15 4.67 15 4.34 15 4 C12.69 3.67 10.38 3.34 8 3 C7.67 4.32 7.34 5.64 7 7 C7 6.01 7 5.02 7 4 C5.68 3.67 4.36 3.34 3 3 C3 2.34 3 1.68 3 1 C2.01 0.67 1.02 0.34 0 0 Z " fill="#8B8986" transform="translate(11,14)"/>
<path d="M0 0 C0.66 1.32 1.32 2.64 2 4 C2.33 4 2.66 4 3 4 C4.66666667 4 6.33333333 4 8 4 C5.25106665 6.74893335 2.83734779 8.40041441 -1 9 C-1.99 8.67 -2.98 8.34 -4 8 C-2.68 7.67 -1.36 7.34 0 7 C-1.32 5.35 -2.64 3.7 -4 2 C-2.68 2.33 -1.36 2.66 0 3 C0 2.01 0 1.02 0 0 Z " fill="#92A4A1" transform="translate(35,33)"/>
<path d="M0 0 C2.31 0.66 4.62 1.32 7 2 C6.67 2.99 6.34 3.98 6 5 C6.66 5.66 7.32 6.32 8 7 C3.25 8.125 3.25 8.125 1 7 C0.59270772 4.67843403 0.25561323 2.3431213 0 0 Z " fill="#F8F6EE" transform="translate(38,24)"/>
<path d="M0 0 C0.33 0.66 0.66 1.32 1 2 C3.58605332 2.4683265 3.58605332 2.4683265 6.5625 2.625 C8.08037109 2.73714844 8.08037109 2.73714844 9.62890625 2.8515625 C10.80259766 2.92503906 10.80259766 2.92503906 12 3 C12 3.33 12 3.66 12 4 C10.35 4 8.7 4 7 4 C7 5.98 7 7.96 7 10 C6.34 9.34 5.68 8.68 5 8 C5 7.01 5 6.02 5 5 C4.38125 4.896875 3.7625 4.79375 3.125 4.6875 C1 4 1 4 -1 1 C-0.67 0.67 -0.34 0.34 0 0 Z " fill="#A4A29D" transform="translate(6,18)"/>
<path d="M0 0 C2.64 0.33 5.28 0.66 8 1 C7.67 2.32 7.34 3.64 7 5 C3.625 5.125 3.625 5.125 0 5 C-0.66 4.34 -1.32 3.68 -2 3 C-1.34 2.01 -0.68 1.02 0 0 Z " fill="#AFBEBC" transform="translate(15,39)"/>
<path d="M0 0 C-0.99 0.495 -0.99 0.495 -2 1 C-2.33 1.99 -2.66 2.98 -3 4 C-2.34 4.33 -1.68 4.66 -1 5 C-4.68754757 4.50168276 -6.60490662 3.89932357 -9 1 C-3.375 -1.125 -3.375 -1.125 0 0 Z " fill="#D3F3EF" transform="translate(24,35)"/>
<path d="M0 0 C1.175625 0.5259375 1.175625 0.5259375 2.375 1.0625 C3.674375 1.5265625 3.674375 1.5265625 5 2 C5.66 1.67 6.32 1.34 7 1 C7 1.99 7 2.98 7 4 C5.02 4.66 3.04 5.32 1 6 C0.67 4.02 0.34 2.04 0 0 Z " fill="#E3DEDD" transform="translate(15,29)"/>
<path d="M0 0 C1.65 0.33 3.3 0.66 5 1 C4.67 1.66 4.34 2.32 4 3 C1.6859378 3.73075648 -0.64828869 4.40138258 -3 5 C-3 4.34 -3 3.68 -3 3 C-2.01 3 -1.02 3 0 3 C0 2.01 0 1.02 0 0 Z " fill="#BFD3D0" transform="translate(33,8)"/>
<path d="M0 0 C0 1.65 0 3.3 0 5 C-0.33 3.68 -0.66 2.36 -1 1 C-2.65 1.33 -4.3 1.66 -6 2 C-6.33 1.34 -6.66 0.68 -7 0 C-4.3333581 -1.33332095 -2.83319697 -0.67102033 0 0 Z " fill="#DEF5F1" transform="translate(39,12)"/>
<path d="M0 0 C0.33 0.66 0.66 1.32 1 2 C0.34 1.67 -0.32 1.34 -1 1 C-0.67 0.67 -0.34 0.34 0 0 Z " fill="#000000" transform="translate(45,36)"/>
<path d="M0 0 C2 1 2 1 2 1 Z " fill="#000000" transform="translate(25,43)"/>
<path d="M0 0 C2 1 2 1 2 1 Z " fill="#000000" transform="translate(28,41)"/>
<path d="" fill="#000000" transform="translate(0,0)"/>
<path d="" fill="#000000" transform="translate(0,0)"/>
<path d="" fill="#000000" transform="translate(0,0)"/>
<path d="" fill="#000000" transform="translate(0,0)"/>
<path d="" fill="#000000" transform="translate(0,0)"/>
<path d="" fill="#000000" transform="translate(0,0)"/>
<path d="" fill="#000000" transform="translate(0,0)"/>
<path d="" fill="#000000" transform="translate(0,0)"/>
<path d="" fill="#000000" transform="translate(0,0)"/>
<path d="" fill="#000000" transform="translate(0,0)"/>
<path d="" fill="#000000" transform="translate(0,0)"/>
<path d="" fill="#000000" transform="translate(0,0)"/>
<path d="" fill="#000000" transform="translate(0,0)"/>
<path d="" fill="#000000" transform="translate(0,0)"/>
<path d="" fill="#000000" transform="translate(0,0)"/>
<path d="" fill="#000000" transform="translate(0,0)"/>
<path d="" fill="#000000" transform="translate(0,0)"/>
<path d="" fill="#000000" transform="translate(0,0)"/>
<path d="" fill="#000000" transform="translate(0,0)"/>
<path d="" fill="#000000" transform="translate(0,0)"/>
<path d="" fill="#000000" transform="translate(0,0)"/>
<path d="" fill="#000000" transform="translate(0,0)"/>
<path d="" fill="#000000" transform="translate(0,0)"/>
<path d="" fill="#000000" transform="translate(0,0)"/>
<path d="" fill="#000000" transform="translate(0,0)"/>
<path d="" fill="#000000" transform="translate(0,0)"/>
<path d="" fill="#000000" transform="translate(0,0)"/>
<path d="" fill="#000000" transform="translate(0,0)"/>
<path d="" fill="#000000" transform="translate(0,0)"/>
<path d="" fill="#000000" transform="translate(0,0)"/>
<path d="" fill="#000000" transform="translate(0,0)"/>
</svg>
