<?xml version="1.0" encoding="UTF-8"?>
<svg version="1.1" xmlns="http://www.w3.org/2000/svg" width="50" height="50">
<path d="M0 0 C1.62463842 -0.05395478 3.24978541 -0.09277195 4.875 -0.125 C6.23238281 -0.15980469 6.23238281 -0.15980469 7.6171875 -0.1953125 C10.88517869 0.07255563 11.73536769 1.73536769 14 4 C14.495 4.99 14.495 4.99 15 6 C15.99 6.66 16.98 7.32 18 8 C20.76531192 10.76531192 20.36369014 12.70897263 20.5625 16.5625 C20.42225226 20.60086946 20.42225226 20.60086946 22 24 C22.375 26.3125 22.375 26.3125 22 29 C18.54913142 32.26433514 14.79506428 35.31499082 10 36 C9.05125 35.79375 8.1025 35.5875 7.125 35.375 C3.15433613 34.89852034 1.51160843 36.20836304 -2 38 C-5.875 38.1875 -5.875 38.1875 -9 38 C-9 37.34 -9 36.68 -9 36 C-10.32 35.67 -11.64 35.34 -13 35 C-13.33 32.36 -13.66 29.72 -14 27 C-15.65 27 -17.3 27 -19 27 C-19 25.68 -19 24.36 -19 23 C-20.32 22.34 -21.64 21.68 -23 21 C-22.01 20.67 -21.02 20.34 -20 20 C-19.67 19.34 -19.34 18.68 -19 18 C-18 16 -18 16 -15 15 C-14.64587656 13.67203709 -14.31478446 12.33783393 -14 11 C-12.0298639 8.5821057 -11.04492309 8.01497436 -8 7 C-7.67 6.01 -7.34 5.02 -7 4 C-5.01276732 3.29618843 -3.01222047 2.6288189 -1 2 C-0.67 1.34 -0.34 0.68 0 0 Z " fill="#BBDCD7" transform="translate(24,6)"/>
<path d="M0 0 C0.33 0.66 0.66 1.32 1 2 C1.66 2 2.32 2 3 2 C3 3.98 3 5.96 3 8 C5.97 8 8.94 8 12 8 C12 12.62 12 17.24 12 22 C6.06 22.33 0.12 22.66 -6 23 C-6.66 21.68 -7.32 20.36 -8 19 C-10.53770003 17.71745356 -10.53770003 17.71745356 -13 17 C-13 17.66 -13 18.32 -13 19 C-14.32 19.33 -15.64 19.66 -17 20 C-16.67 15.38 -16.34 10.76 -16 6 C-13.03 6 -10.06 6 -7 6 C-7 4.68 -7 3.36 -7 2 C-4.69 1.34 -2.38 0.68 0 0 Z " fill="#E4BA34" transform="translate(29,13)"/>
<path d="M0 0 C1.62463842 -0.05395478 3.24978541 -0.09277195 4.875 -0.125 C6.23238281 -0.15980469 6.23238281 -0.15980469 7.6171875 -0.1953125 C10.88517869 0.07255563 11.73536769 1.73536769 14 4 C14.33 4.66 14.66 5.32 15 6 C15.99 6.66 16.98 7.32 18 8 C18.66 8.66 19.32 9.32 20 10 C19.67 11.32 19.34 12.64 19 14 C16.03 14 13.06 14 10 14 C10 13.67 10 13.34 10 13 C11.98 12.67 13.96 12.34 16 12 C15.01 11.34 14.02 10.68 13 10 C13 8.68 13 7.36 13 6 C12.01580078 6.45632813 12.01580078 6.45632813 11.01171875 6.921875 C7.32781066 8.24062809 3.67422084 8.77471128 -0.1875 9.25 C-0.91130859 9.353125 -1.63511719 9.45625 -2.38085938 9.5625 C-4.24471838 9.79829984 -6.12352069 9.90836283 -8 10 C-8.66 9.34 -9.32 8.68 -10 8 C-9.34 7.67 -8.68 7.34 -8 7 C-7.67 6.01 -7.34 5.02 -7 4 C-5.01276732 3.29618843 -3.01222047 2.6288189 -1 2 C-0.67 1.34 -0.34 0.68 0 0 Z " fill="#BAD8D3" transform="translate(24,6)"/>
<path d="M0 0 C0.061875 0.86625 0.061875 0.86625 0.125 1.75 C1.43400256 5.11600658 4.00937984 6.1308624 7 8 C8.46921926 10.93843852 8 13.75397821 8 17 C8.33 17.33 8.66 17.66 9 18 C9.1875 20.4375 9.1875 20.4375 9 23 C7 25 7 25 5.02880859 25.13525391 C4.24328613 25.08288574 3.45776367 25.03051758 2.6484375 24.9765625 C1.79765625 24.925 0.946875 24.8734375 0.0703125 24.8203125 C-0.81914063 24.75585938 -1.70859375 24.69140625 -2.625 24.625 C-3.5221875 24.56828125 -4.419375 24.5115625 -5.34375 24.453125 C-7.56328624 24.31145247 -9.78172402 24.1600296 -12 24 C-12 23.67 -12 23.34 -12 23 C-6.72 23 -1.44 23 4 23 C4 18.38 4 13.76 4 9 C1.03 9 -1.94 9 -5 9 C-5 7.02 -5 5.04 -5 3 C-5.66 3 -6.32 3 -7 3 C-7 2.34 -7 1.68 -7 1 C-4.50935112 0.31292445 -2.62113708 0 0 0 Z " fill="#C6E9E4" transform="translate(37,12)"/>
<path d="M0 0 C0.33 0.66 0.66 1.32 1 2 C1.66 2 2.32 2 3 2 C3 3.98 3 5.96 3 8 C5.97 8 8.94 8 12 8 C12 12.62 12 17.24 12 22 C6.06 22.33 0.12 22.66 -6 23 C-6.33 21.68 -6.66 20.36 -7 19 C-1.06 19 4.88 19 11 19 C11 17.02 11 15.04 11 13 C8.69 13 6.38 13 4 13 C4 12.67 4 12.34 4 12 C6.31 12 8.62 12 11 12 C11 11.01 11 10.02 11 9 C8.03 9 5.06 9 2 9 C2 7.02 2 5.04 2 3 C-0.64 3 -3.28 3 -6 3 C-6 3.66 -6 4.32 -6 5 C-5.34 5.33 -4.68 5.66 -4 6 C-6.40545638 7.20272819 -7.94996953 7.10071472 -10.625 7.0625 C-11.85089844 7.04896484 -11.85089844 7.04896484 -13.1015625 7.03515625 C-14.04128906 7.01775391 -14.04128906 7.01775391 -15 7 C-15 7.66 -15 8.32 -15 9 C-12.69 9 -10.38 9 -8 9 C-8 9.33 -8 9.66 -8 10 C-10.31 10 -12.62 10 -15 10 C-14.51515724 14.64586892 -14.51515724 14.64586892 -13 19 C-14.32 19.33 -15.64 19.66 -17 20 C-16.67 15.38 -16.34 10.76 -16 6 C-13.03 6 -10.06 6 -7 6 C-7 4.68 -7 3.36 -7 2 C-4.69 1.34 -2.38 0.68 0 0 Z " fill="#7C6D3D" transform="translate(29,13)"/>
<path d="M0 0 C0.80050781 0.12761719 1.60101563 0.25523438 2.42578125 0.38671875 C3.23402344 0.50660156 4.04226562 0.62648438 4.875 0.75 C5.48988281 0.85699219 6.10476562 0.96398438 6.73828125 1.07421875 C6.73828125 2.39421875 6.73828125 3.71421875 6.73828125 5.07421875 C3.76828125 5.07421875 0.79828125 5.07421875 -2.26171875 5.07421875 C-2.59171875 8.37421875 -2.92171875 11.67421875 -3.26171875 15.07421875 C-5.24171875 15.40421875 -7.22171875 15.73421875 -9.26171875 16.07421875 C-9.26171875 15.41421875 -9.26171875 14.75421875 -9.26171875 14.07421875 C-10.91171875 13.74421875 -12.56171875 13.41421875 -14.26171875 13.07421875 C-13.27171875 12.74421875 -12.28171875 12.41421875 -11.26171875 12.07421875 C-10.93171875 11.41421875 -10.60171875 10.75421875 -10.26171875 10.07421875 C-9.26171875 8.07421875 -9.26171875 8.07421875 -6.26171875 7.07421875 C-5.90759531 5.74625584 -5.57650321 4.41205268 -5.26171875 3.07421875 C-3.57014862 0.81701318 -2.87051423 0.09419649 0 0 Z " fill="#C2E4DF" transform="translate(15.26171875,13.92578125)"/>
<path d="M0 0 C0.33 0 0.66 0 1 0 C1.0272415 1.41655793 1.04650467 2.83327045 1.0625 4.25 C1.07410156 5.03890625 1.08570313 5.8278125 1.09765625 6.640625 C1.00385306 8.90691002 0.63241063 10.8288895 0 13 C1.65 13 3.3 13 5 13 C3.35 14.65 1.7 16.3 0 18 C-0.89130413 15.3260876 -1.47731534 12.76276177 -2 10 C-3.65 10 -5.3 10 -7 10 C-7 8.68 -7 7.36 -7 6 C-7.66 5.67 -8.32 5.34 -9 5 C-8.01 5 -7.02 5 -6 5 C-6 5.66 -6 6.32 -6 7 C-4.02 6.67 -2.04 6.34 0 6 C0 4.02 0 2.04 0 0 Z " fill="#B9D9D7" transform="translate(12,23)"/>
<path d="M0 0 C2.33377861 1.46694656 4.05113895 3.05113895 6 5 C5.67 6.32 5.34 7.64 5 9 C2.03 9 -0.94 9 -4 9 C-4 8.67 -4 8.34 -4 8 C-2.02 7.67 -0.04 7.34 2 7 C1.01 6.34 0.02 5.68 -1 5 C-1 3.68 -1 2.36 -1 1 C-2.65 1.66 -4.3 2.32 -6 3 C-6.66 2.34 -7.32 1.68 -8 1 C-4.97827058 -0.00724314 -3.14484365 -0.30681401 0 0 Z " fill="#9C958F" transform="translate(38,11)"/>
<path d="M0 0 C2.9375 0.75 2.9375 0.75 6 2 C6.33 3.32 6.66 4.64 7 6 C3.37 6 -0.26 6 -4 6 C-4 5.01 -4 4.02 -4 3 C-2.68 2.67 -1.36 2.34 0 2 C0 1.34 0 0.68 0 0 Z " fill="#F2EFE7" transform="translate(16,30)"/>
<path d="M0 0 C0.0825 0.598125 0.165 1.19625 0.25 1.8125 C1.20455872 4.5966296 2.57132271 5.43311142 5 7 C2.03 7 -0.94 7 -4 7 C-4.33 7.66 -4.66 8.32 -5 9 C-5 7.02 -5 5.04 -5 3 C-5.66 3 -6.32 3 -7 3 C-7 2.34 -7 1.68 -7 1 C-4.50935112 0.31292445 -2.62113708 0 0 0 Z " fill="#F7F6EF" transform="translate(37,12)"/>
<path d="M0 0 C1.81325551 0.11351517 3.62563357 0.24112961 5.4375 0.375 C6.95150391 0.47941406 6.95150391 0.47941406 8.49609375 0.5859375 C9.73552734 0.79089844 9.73552734 0.79089844 11 1 C12.35439668 3.70879335 12.06501451 6.00933268 12 9 C11.01 9.495 11.01 9.495 10 10 C9.34227572 13.02934491 9.34227572 13.02934491 9 16 C8.67 16 8.34 16 8 16 C8 11.38 8 6.76 8 2 C5.36 2 2.72 2 0 2 C0 1.34 0 0.68 0 0 Z " fill="#C0E5E2" transform="translate(33,19)"/>
<path d="M0 0 C2.31 0 4.62 0 7 0 C7 1.98 7 3.96 7 6 C1.39 6 -4.22 6 -10 6 C-10 5.67 -10 5.34 -10 5 C-5.38 5 -0.76 5 4 5 C4 4.01 4 3.02 4 2 C2.68 1.34 1.36 0.68 0 0 Z " fill="#F8C616" transform="translate(33,26)"/>
<path d="M0 0 C1.65 0.33 3.3 0.66 5 1 C5.33 2.32 5.66 3.64 6 5 C2.625 5.625 2.625 5.625 -1 6 C-1.66 5.34 -2.32 4.68 -3 4 C-2.34 3.67 -1.68 3.34 -1 3 C-0.67 2.01 -0.34 1.02 0 0 Z " fill="#ABBFBB" transform="translate(17,10)"/>
<path d="M0 0 C0 0.66 0 1.32 0 2 C0.66 2 1.32 2 2 2 C2 2.66 2 3.32 2 4 C0.02 4.33 -1.96 4.66 -4 5 C-4 4.34 -4 3.68 -4 3 C-5.32 2.67 -6.64 2.34 -8 2 C-2.25 0 -2.25 0 0 0 Z " fill="#DEF2EF" transform="translate(10,25)"/>
<path d="M0 0 C2.475 0.495 2.475 0.495 5 1 C4.01 1.495 4.01 1.495 3 2 C2.835 2.825 2.67 3.65 2.5 4.5 C2.335 5.325 2.17 6.15 2 7 C1.01 7.495 1.01 7.495 0 8 C0 5.36 0 2.72 0 0 Z " fill="#F5C216" transform="translate(14,23)"/>
<path d="M0 0 C2.97 0.33 5.94 0.66 9 1 C8.67 1.99 8.34 2.98 8 4 C5.69 4 3.38 4 1 4 C0.67 2.68 0.34 1.36 0 0 Z " fill="#CEF1EB" transform="translate(13,14)"/>
<path d="M0 0 C0.66 0 1.32 0 2 0 C2 0.99 2 1.98 2 3 C3.65 3 5.3 3 7 3 C5.35 4.65 3.7 6.3 2 8 C1.10869587 5.3260876 0.52268466 2.76276177 0 0 Z " fill="#8F9B96" transform="translate(10,33)"/>
<path d="M0 0 C0.66 0.33 1.32 0.66 2 1 C2 2.98 2 4.96 2 7 C1.01 7.495 1.01 7.495 0 8 C-1.125 2.25 -1.125 2.25 0 0 Z " fill="#B9D7D4" transform="translate(43,21)"/>
<path d="M0 0 C1.65 0 3.3 0 5 0 C4.67 0.66 4.34 1.32 4 2 C3.34 2 2.68 2 2 2 C2 3.65 2 5.3 2 7 C1.34 6.67 0.68 6.34 0 6 C0 4.02 0 2.04 0 0 Z " fill="#B38E33" transform="translate(26,18)"/>
<path d="M0 0 C2.64 0 5.28 0 8 0 C8 0.66 8 1.32 8 2 C2.25 3.125 2.25 3.125 0 2 C0 1.34 0 0.68 0 0 Z " fill="#FCF79A" transform="translate(23,16)"/>
<path d="M0 0 C0.33 0.66 0.66 1.32 1 2 C0.34 1.67 -0.32 1.34 -1 1 C-0.67 0.67 -0.34 0.34 0 0 Z " fill="#000000" transform="translate(45,36)"/>
<path d="M0 0 C2 1 2 1 2 1 Z " fill="#000000" transform="translate(25,43)"/>
<path d="M0 0 C2 1 2 1 2 1 Z " fill="#000000" transform="translate(13,42)"/>
<path d="M0 0 C2 1 2 1 2 1 Z " fill="#000000" transform="translate(28,41)"/>
<path d="" fill="#000000" transform="translate(0,0)"/>
<path d="" fill="#000000" transform="translate(0,0)"/>
<path d="" fill="#000000" transform="translate(0,0)"/>
<path d="" fill="#000000" transform="translate(0,0)"/>
<path d="" fill="#000000" transform="translate(0,0)"/>
<path d="" fill="#000000" transform="translate(0,0)"/>
<path d="" fill="#000000" transform="translate(0,0)"/>
<path d="" fill="#000000" transform="translate(0,0)"/>
<path d="" fill="#000000" transform="translate(0,0)"/>
<path d="" fill="#000000" transform="translate(0,0)"/>
<path d="" fill="#000000" transform="translate(0,0)"/>
<path d="" fill="#000000" transform="translate(0,0)"/>
<path d="" fill="#000000" transform="translate(0,0)"/>
<path d="" fill="#000000" transform="translate(0,0)"/>
<path d="" fill="#000000" transform="translate(0,0)"/>
<path d="" fill="#000000" transform="translate(0,0)"/>
<path d="" fill="#000000" transform="translate(0,0)"/>
<path d="" fill="#000000" transform="translate(0,0)"/>
<path d="" fill="#000000" transform="translate(0,0)"/>
<path d="" fill="#000000" transform="translate(0,0)"/>
<path d="" fill="#000000" transform="translate(0,0)"/>
<path d="" fill="#000000" transform="translate(0,0)"/>
<path d="" fill="#000000" transform="translate(0,0)"/>
<path d="" fill="#000000" transform="translate(0,0)"/>
<path d="" fill="#000000" transform="translate(0,0)"/>
<path d="" fill="#000000" transform="translate(0,0)"/>
<path d="" fill="#000000" transform="translate(0,0)"/>
<path d="" fill="#000000" transform="translate(0,0)"/>
<path d="" fill="#000000" transform="translate(0,0)"/>
</svg>
