<?xml version="1.0" encoding="UTF-8"?>
<svg version="1.1" xmlns="http://www.w3.org/2000/svg" width="50" height="50">
<path d="M0 0 C0.76441406 0.07605469 1.52882813 0.15210938 2.31640625 0.23046875 C4.82584431 0.91906225 5.85271848 1.77203051 7.4375 3.8125 C7.4375 4.4725 7.4375 5.1325 7.4375 5.8125 C8.18 6.06 8.9225 6.3075 9.6875 6.5625 C12.71240317 7.93745599 14.42030015 9.17462327 16.4375 11.8125 C16.14874889 13.1561933 15.80780503 14.48895813 15.4375 15.8125 C15.37201508 17.39461573 15.35171619 18.97920081 15.375 20.5625 C15.38402344 21.36171875 15.39304688 22.1609375 15.40234375 22.984375 C15.41394531 23.58765625 15.42554688 24.1909375 15.4375 24.8125 C16.0975 24.8125 16.7575 24.8125 17.4375 24.8125 C17.4375 25.4725 17.4375 26.1325 17.4375 26.8125 C16.7775 26.8125 16.1175 26.8125 15.4375 26.8125 C15.416875 27.410625 15.39625 28.00875 15.375 28.625 C14.4375 30.8125 14.4375 30.8125 11 32.4375 C9.824375 32.89125 8.64875 33.345 7.4375 33.8125 C6.7775 34.4725 6.1175 35.1325 5.4375 35.8125 C3.46049837 35.8125 1.48116573 35.80755191 -0.4921875 35.6875 C-2.62294305 35.67972319 -2.62294305 35.67972319 -4.546875 36.80859375 C-8.18585921 38.62103356 -11.78539269 38.07589985 -15.5625 36.8125 C-17.48318814 35.15169355 -18.89086112 33.46423725 -20.37109375 31.40625 C-21.48900954 29.66232118 -21.48900954 29.66232118 -23.5625 28.8125 C-23.5625 27.8225 -23.5625 26.8325 -23.5625 25.8125 C-24.2225 25.8125 -24.8825 25.8125 -25.5625 25.8125 C-26.2225 22.5125 -26.8825 19.2125 -27.5625 15.8125 C-26.77875 15.565 -25.995 15.3175 -25.1875 15.0625 C-22.14785135 13.61504826 -21.86343863 12.78607402 -20.5625 9.8125 C-17.5625 7.8125 -17.5625 7.8125 -15.125 7.5 C-11.63727157 6.56426798 -10.70072688 4.64047749 -8.5625 1.8125 C-5.55505001 -0.10714893 -3.51842965 -0.41078113 0 0 Z " fill="#C4EAE3" transform="translate(30.5625,6.1875)"/>
<path d="M0 0 C5.61 0 11.22 0 17 0 C17.09765625 9.27734375 17.09765625 9.27734375 17 12 C16 13 16 13 12.40234375 13.09765625 C10.91403133 13.0909822 9.42573568 13.07902183 7.9375 13.0625 C6.79958008 13.05573242 6.79958008 13.05573242 5.63867188 13.04882812 C3.75908129 13.0370068 1.87953101 13.01907078 0 13 C0 8.71 0 4.42 0 0 Z " fill="#EEEBDE" transform="translate(17,19)"/>
<path d="M0 0 C0 0.99 0 1.98 0 3 C-0.66 3 -1.32 3 -2 3 C-1.97679688 3.91523438 -1.95359375 4.83046875 -1.9296875 5.7734375 C-1.90261719 7.55621094 -1.90261719 7.55621094 -1.875 9.375 C-1.85179688 10.55835938 -1.82859375 11.74171875 -1.8046875 12.9609375 C-2 16 -2 16 -4 18 C-7.625 18.125 -7.625 18.125 -11 18 C-11 18.66 -11 19.32 -11 20 C-9.02 20.33 -7.04 20.66 -5 21 C-5 21.66 -5 22.32 -5 23 C-9.29 23 -13.58 23 -18 23 C-18 22.34 -18 21.68 -18 21 C-16.02 20.67 -14.04 20.34 -12 20 C-12 19.34 -12 18.68 -12 18 C-16.95 18.495 -16.95 18.495 -22 19 C-21.67 18.34 -21.34 17.68 -21 17 C-21.24756445 14.92638012 -21.24756445 14.92638012 -22 13 C-22.66 12.67 -23.32 12.34 -24 12 C-23.34 12 -22.68 12 -22 12 C-22.33 8.04 -22.66 4.08 -23 0 C-6.65789474 -1.61403509 -6.65789474 -1.61403509 0 0 Z M-20 3 C-20 7.29 -20 11.58 -20 16 C-17.35409986 16.02684679 -14.70846904 16.04676357 -12.0625 16.0625 C-11.30775391 16.07087891 -10.55300781 16.07925781 -9.77539062 16.08789062 C-7.85005687 16.09652441 -5.92464419 16.05224333 -4 16 C-2.68737429 14.91447634 -2.68737429 14.91447634 -2.90234375 12.27734375 C-2.91394531 11.17519531 -2.92554687 10.07304687 -2.9375 8.9375 C-2.9684375 5.9984375 -2.9684375 5.9984375 -3 3 C-8.61 3 -14.22 3 -20 3 Z " fill="#A67C6E" transform="translate(37,16)"/>
<path d="M0 0 C1.76953125 1.43359375 1.76953125 1.43359375 3 3 C3 3.66 3 4.32 3 5 C3.7425 5.2475 4.485 5.495 5.25 5.75 C8.27490317 7.12495599 9.98280015 8.36212327 12 11 C11.75 13.25 11.75 13.25 11 15 C10.34 14.67 9.68 14.34 9 14 C9.33 12.68 9.66 11.36 10 10 C9.195625 9.87625 8.39125 9.7525 7.5625 9.625 C6.716875 9.41875 5.87125 9.2125 5 9 C4.67 8.34 4.34 7.68 4 7 C2.865625 7.32742188 1.73125 7.65484375 0.5625 7.9921875 C-4.01221379 9.13586595 -8.30763987 9.23072042 -13 9.125 C-14.16208984 9.11146484 -14.16208984 9.11146484 -15.34765625 9.09765625 C-17.23190843 9.07439388 -19.11599832 9.0385364 -21 9 C-20.35804687 8.88269531 -19.71609375 8.76539063 -19.0546875 8.64453125 C-18.37664063 8.43183594 -17.69859375 8.21914062 -17 8 C-16.566875 6.8553125 -16.566875 6.8553125 -16.125 5.6875 C-13.16910952 -1.37379393 -6.60505482 -2.10103648 0 0 Z " fill="#B6D3CC" transform="translate(35,7)"/>
<path d="M0 0 C-1.32 0.33 -2.64 0.66 -4 1 C-3.83628906 1.56203125 -3.67257812 2.1240625 -3.50390625 2.703125 C-2.97135003 5.13059056 -2.90101319 7.26889681 -2.9375 9.75 C-2.94652344 10.54921875 -2.95554687 11.3484375 -2.96484375 12.171875 C-2.97644531 12.77515625 -2.98804688 13.3784375 -3 14 C-3.66 14 -4.32 14 -5 14 C-5 14.66 -5 15.32 -5 16 C-5.66 16 -6.32 16 -7 16 C-7.33 16.99 -7.66 17.98 -8 19 C-7.67 19.33 -7.34 19.66 -7 20 C-7.66 20.66 -8.32 21.32 -9 22 C-9.66 21.67 -10.32 21.34 -11 21 C-11 20.01 -11 19.02 -11 18 C-11.66 18 -12.32 18 -13 18 C-13.66 14.7 -14.32 11.4 -15 8 C-14.21625 7.7525 -13.4325 7.505 -12.625 7.25 C-9.58535135 5.80254826 -9.30093863 4.97357402 -8 2 C-4.77208445 -0.1519437 -3.71599191 -0.20086443 0 0 Z " fill="#BFDDD6" transform="translate(18,14)"/>
<path d="M0 0 C0.99 0 1.98 0 3 0 C3 2.31 3 4.62 3 7 C-2.28 7 -7.56 7 -13 7 C-13 6.01 -13 5.02 -13 4 C-12.01 3.67 -11.02 3.34 -10 3 C-9.67 2.34 -9.34 1.68 -9 1 C-8.401875 1.165 -7.80375 1.33 -7.1875 1.5 C-4.88655664 2.1114124 -4.88655664 2.1114124 -2 2 C-1.34 1.34 -0.68 0.68 0 0 Z " fill="#FBFAEC" transform="translate(30,25)"/>
<path d="M0 0 C0.74886475 0.00523682 1.49772949 0.01047363 2.26928711 0.01586914 C3.07817383 0.0190918 3.88706055 0.02231445 4.72045898 0.02563477 C5.5705957 0.03401367 6.42073242 0.04239258 7.29663086 0.05102539 C8.15063477 0.05553711 9.00463867 0.06004883 9.88452148 0.06469727 C12.00108749 0.07652166 14.11761771 0.0944577 16.23413086 0.11352539 C16.23413086 0.44352539 16.23413086 0.77352539 16.23413086 1.11352539 C10.62413086 1.11352539 5.01413086 1.11352539 -0.76586914 1.11352539 C-0.76586914 5.40352539 -0.76586914 9.69352539 -0.76586914 14.11352539 C4.18413086 14.11352539 9.13413086 14.11352539 14.23413086 14.11352539 C14.23413086 14.44352539 14.23413086 14.77352539 14.23413086 15.11352539 C12.3392108 15.45201191 10.4431462 15.7840945 8.54663086 16.11352539 C7.49088867 16.29915039 6.43514648 16.48477539 5.34741211 16.67602539 C2.58509024 17.06420613 0.01671043 17.19612516 -2.76586914 17.11352539 C-2.43586914 16.45352539 -2.10586914 15.79352539 -1.76586914 15.11352539 C-2.01343359 13.03990551 -2.01343359 13.03990551 -2.76586914 11.11352539 C-3.42586914 10.78352539 -4.08586914 10.45352539 -4.76586914 10.11352539 C-4.10586914 10.11352539 -3.44586914 10.11352539 -2.76586914 10.11352539 C-2.7774707 9.47543945 -2.78907227 8.83735352 -2.80102539 8.17993164 C-2.81004883 7.35364258 -2.81907227 6.52735352 -2.82836914 5.67602539 C-2.8399707 4.85231445 -2.85157227 4.02860352 -2.86352539 3.17993164 C-2.74082784 0.58365148 -2.60424345 0.16742337 0 0 Z " fill="#B1A59B" transform="translate(17.765869140625,17.886474609375)"/>
<path d="M0 0 C0.99 0.33 1.98 0.66 3 1 C3 1.66 3 2.32 3 3 C4.65 3.33 6.3 3.66 8 4 C8 5.32 8 6.64 8 8 C4.7 8 1.4 8 -2 8 C-2 7.34 -2 6.68 -2 6 C-1.34 6 -0.68 6 0 6 C0 5.01 0 4.02 0 3 C-1.65 3 -3.3 3 -5 3 C-4.360625 2.690625 -3.72125 2.38125 -3.0625 2.0625 C-1.06389179 1.1654837 -1.06389179 1.1654837 0 0 Z " fill="#ECE9DD" transform="translate(37,13)"/>
<path d="M0 0 C0.33 0.99 0.66 1.98 1 3 C3.97 3.495 3.97 3.495 7 4 C7 4.66 7 5.32 7 6 C2.71 6 -1.58 6 -6 6 C-6 5.34 -6 4.68 -6 4 C-4.02 3.67 -2.04 3.34 0 3 C0 2.01 0 1.02 0 0 Z " fill="#907C73" transform="translate(25,33)"/>
<path d="M0 0 C0 0.99 0 1.98 0 3 C-5.41538462 4.23076923 -5.41538462 4.23076923 -8.375 3.0625 C-8.91125 2.711875 -9.4475 2.36125 -10 2 C-10 1.34 -10 0.68 -10 0 C-6.30581799 -1.231394 -3.7943739 -0.64432764 0 0 Z " fill="#DEF4F0" transform="translate(13,22)"/>
<path d="M0 0 C0.12375 0.639375 0.2475 1.27875 0.375 1.9375 C0.684375 2.9584375 0.684375 2.9584375 1 4 C1.66 4.33 2.32 4.66 3 5 C0.03 5 -2.94 5 -6 5 C-3.5 0 -3.5 0 0 0 Z " fill="#F9F8EB" transform="translate(15,29)"/>
<path d="M0 0 C0.99 0.33 1.98 0.66 3 1 C3 1.66 3 2.32 3 3 C-4.42857143 3.28571429 -4.42857143 3.28571429 -8 1 C-4.903311 -0.8801326 -3.41988546 -1.21350774 0 0 Z " fill="#E2F5F1" transform="translate(45,30)"/>
<path d="M0 0 C0 0.66 0 1.32 0 2 C-0.969375 2.12375 -1.93875 2.2475 -2.9375 2.375 C-3.948125 2.58125 -4.95875 2.7875 -6 3 C-6.33 3.66 -6.66 4.32 -7 5 C-7 4.01 -7 3.02 -7 2 C-7.99 1.67 -8.98 1.34 -10 1 C-6.59437148 0.22157062 -3.49234244 -0.09978121 0 0 Z " fill="#BFE1DA" transform="translate(25,34)"/>
</svg>
