<?xml version="1.0" encoding="UTF-8"?>
<svg version="1.1" xmlns="http://www.w3.org/2000/svg" width="50" height="50">
<path d="M0 0 C1.8871875 0.0309375 1.8871875 0.0309375 3.8125 0.0625 C3.8125 0.7225 3.8125 1.3825 3.8125 2.0625 C5.7925 2.3925 7.7725 2.7225 9.8125 3.0625 C9.565 3.59875 9.3175 4.135 9.0625 4.6875 C8.6752597 8.36628288 10.66913982 10.18427348 12.8125 13.0625 C15.18655114 16.62357671 14.8125 17.87879683 14.8125 22.0625 C15.35961469 24.77364867 16.07616057 27.39326955 16.8125 30.0625 C13.82208067 31.97304568 11.29507242 33.36598552 7.8125 34.0625 C6.8225 34.3925 5.8325 34.7225 4.8125 35.0625 C3.14632885 35.10313832 1.47861905 35.105221 -0.1875 35.0625 C-2.24120361 34.90349701 -2.24120361 34.90349701 -4.015625 36.0546875 C-6.51988787 37.21673754 -8.1956811 37.26814173 -10.9375 37.1875 C-11.73671875 37.16945312 -12.5359375 37.15140625 -13.359375 37.1328125 C-13.96265625 37.10960937 -14.5659375 37.08640625 -15.1875 37.0625 C-15.455625 36.423125 -15.72375 35.78375 -16 35.125 C-17.07417752 32.73118314 -17.07417752 32.73118314 -20.1875 32.0625 C-20.1875 30.0825 -20.1875 28.1025 -20.1875 26.0625 C-20.80625 25.93875 -21.425 25.815 -22.0625 25.6875 C-24.1875 25.0625 -24.1875 25.0625 -26.1875 23.0625 C-26.1875 21.7425 -26.1875 20.4225 -26.1875 19.0625 C-26.8475 18.7325 -27.5075 18.4025 -28.1875 18.0625 C-18.24872449 8.12372449 -18.24872449 8.12372449 -13.9375 7.875 C-12.57625 7.9678125 -12.57625 7.9678125 -11.1875 8.0625 C-11.1875 6.7425 -11.1875 5.4225 -11.1875 4.0625 C-7.76355943 0.87469326 -4.60320631 -0.0754624 0 0 Z " fill="#BCDAD5" transform="translate(30.1875,5.9375)"/>
<path d="M0 0 C0.66 0.33 1.32 0.66 2 1 C3.4723467 6.5481144 3.77276977 11.61867388 0.875 16.6875 C-1.48684611 19.89987241 -1.48684611 19.89987241 -4.5625 20.5 C-5.366875 20.335 -6.17125 20.17 -7 20 C-11.04622502 19.63019987 -11.04622502 19.63019987 -14 22 C-16.33199388 22.07905064 -18.66832622 22.08798769 -21 22 C-21 21.34 -21 20.68 -21 20 C-21.99 19.67 -22.98 19.34 -24 19 C-23.01 18.67 -22.02 18.34 -21 18 C-19.62150897 16.71340837 -18.29470975 15.37086915 -17 14 C-16.113125 13.236875 -15.22625 12.47375 -14.3125 11.6875 C-11.48884094 8.40595029 -11.5455799 6.20875925 -11 2 C-7.78288006 -1.95953223 -4.65456251 -1.03434722 0 0 Z " fill="#AC9783" transform="translate(31,12)"/>
<path d="M0 0 C0.33 0.66 0.66 1.32 1 2 C2.65 2 4.3 2 6 2 C6 1.34 6 0.68 6 0 C8.64 0 11.28 0 14 0 C13.01 0.495 13.01 0.495 12 1 C12.34444881 3.47266765 12.34444881 3.47266765 13 6 C13.66 6.33 14.32 6.66 15 7 C15 8.32 15 9.64 15 11 C11.66666667 11 8.33333333 11 5 11 C4.39671875 11.32742187 3.7934375 11.65484375 3.171875 11.9921875 C0.66761213 13.15423754 -1.0081811 13.20564173 -3.75 13.125 C-4.54921875 13.10695313 -5.3484375 13.08890625 -6.171875 13.0703125 C-6.77515625 13.04710937 -7.3784375 13.02390625 -8 13 C-8.268125 12.360625 -8.53625 11.72125 -8.8125 11.0625 C-9.88667752 8.66868314 -9.88667752 8.66868314 -13 8 C-12.67 6.35 -12.34 4.7 -12 3 C-10.700625 3.0928125 -10.700625 3.0928125 -9.375 3.1875 C-5.55800967 2.97544498 -3.28922464 1.87955693 0 0 Z " fill="#B5D3CE" transform="translate(23,30)"/>
<path d="M0 0 C1.4422149 4.32664469 0.64414672 7.79009965 -1 12 C-2.8542007 14.24673343 -4.5054106 15.38891101 -7 17 C-7.66 17 -8.32 17 -9 17 C-9.33 17.99 -9.66 18.98 -10 20 C-11.65 19.67 -13.3 19.34 -15 19 C-15.12375 18.195625 -15.2475 17.39125 -15.375 16.5625 C-15.684375 15.2940625 -15.684375 15.2940625 -16 14 C-16.66 13.67 -17.32 13.34 -18 13 C-8.06122449 3.06122449 -8.06122449 3.06122449 -3.75 2.8125 C-2.38875 2.9053125 -2.38875 2.9053125 -1 3 C-0.67 2.01 -0.34 1.02 0 0 Z " fill="#C6E6E0" transform="translate(20,11)"/>
<path d="M0 0 C0.66 0.33 1.32 0.66 2 1 C2 3.64 2 6.28 2 9 C0.35 9.33 -1.3 9.66 -3 10 C-3.33 8.68 -3.66 7.36 -4 6 C-5.65 5.67 -7.3 5.34 -9 5 C-9.33 6.32 -9.66 7.64 -10 9 C-10.33 9 -10.66 9 -11 9 C-11.48176187 2.6166552 -11.48176187 2.6166552 -9.4375 0 C-6.00313602 -1.40896984 -3.56932808 -0.79318402 0 0 Z " fill="#B37241" transform="translate(31,12)"/>
<path d="M0 0 C0.33 0.66 0.66 1.32 1 2 C2.65 2 4.3 2 6 2 C6 1.34 6 0.68 6 0 C8.64 0 11.28 0 14 0 C13.01 0.495 13.01 0.495 12 1 C12.33 2.65 12.66 4.3 13 6 C6.5510809 7.31909709 0.51244208 6.69508823 -6 6 C-5.66015625 4.078125 -5.66015625 4.078125 -5 2 C-2.4375 0.75 -2.4375 0.75 0 0 Z " fill="#728B8A" transform="translate(23,30)"/>
<path d="M0 0 C2.475 0.495 2.475 0.495 5 1 C5.33 2.32 5.66 3.64 6 5 C6.66 5 7.32 5 8 5 C8.33 3.68 8.66 2.36 9 1 C9.36391205 8.39954511 9.36391205 8.39954511 7.75 11.0625 C6 12 6 12 3.9375 11.8125 C2 11 2 11 0 9 C-0.1953125 6.8359375 -0.1953125 6.8359375 -0.125 4.375 C-0.10695313 3.55773437 -0.08890625 2.74046875 -0.0703125 1.8984375 C-0.04710938 1.27195312 -0.02390625 0.64546875 0 0 Z " fill="#FADCBD" transform="translate(22,17)"/>
<path d="M0 0 C1.65 1.65 3.3 3.3 5 5 C4.67 5.66 4.34 6.32 4 7 C1.24921116 7.91692961 -0.35948913 8.10886083 -3.1875 8.0625 C-5.0746875 8.0315625 -5.0746875 8.0315625 -7 8 C-7 7.01 -7 6.02 -7 5 C-5.46875 3.61328125 -5.46875 3.61328125 -3.5 2.3125 C-2.8503125 1.87550781 -2.200625 1.43851563 -1.53125 0.98828125 C-1.0259375 0.66214844 -0.520625 0.33601563 0 0 Z " fill="#F2EFE8" transform="translate(19,24)"/>
<path d="M0 0 C6.76594019 -0.11381955 13.28837062 0.11978631 20 1 C20 2.32 20 3.64 20 5 C17.36 5 14.72 5 12 5 C11.34 3.68 10.68 2.36 10 1 C6.7 1 3.4 1 0 1 C0 0.67 0 0.34 0 0 Z " fill="#AFC5C0" transform="translate(18,36)"/>
<path d="M0 0 C1.8871875 0.0309375 1.8871875 0.0309375 3.8125 0.0625 C3.4825 1.0525 3.1525 2.0425 2.8125 3.0625 C1.74 2.98 0.6675 2.8975 -0.4375 2.8125 C-4.22759265 2.70012783 -4.22759265 2.70012783 -6.625 5.0625 C-7.140625 5.7225 -7.65625 6.3825 -8.1875 7.0625 C-8.5175 6.4025 -8.8475 5.7425 -9.1875 5.0625 C-9.8475 4.7325 -10.5075 4.4025 -11.1875 4.0625 C-7.47611183 1.11898524 -4.747758 -0.0778321 0 0 Z " fill="#AFCBC9" transform="translate(30.1875,5.9375)"/>
<path d="M0 0 C2.9375 0.75 2.9375 0.75 6 2 C6.875 4.125 6.875 4.125 7 6 C2.91556885 7.53166168 -0.79455657 6.63081652 -5 6 C-5 5.67 -5 5.34 -5 5 C-3.02 5 -1.04 5 1 5 C0.67 3.35 0.34 1.7 0 0 Z " fill="#FCFAF2" transform="translate(35,31)"/>
<path d="M0 0 C1.62418745 -0.08090971 3.24951745 -0.13914995 4.875 -0.1875 C5.77992187 -0.22230469 6.68484375 -0.25710937 7.6171875 -0.29296875 C8.79667969 -0.14794922 8.79667969 -0.14794922 10 0 C10.66 0.99 11.32 1.98 12 3 C8.04 3 4.08 3 0 3 C0 2.01 0 1.02 0 0 Z " fill="#66CFD9" transform="translate(23,32)"/>
<path d="M0 0 C3.96 0 7.92 0 12 0 C8.65813694 3.34186306 7.55209057 3.62840077 3 4 C0.625 3.5625 0.625 3.5625 -1 3 C-0.67 2.01 -0.34 1.02 0 0 Z " fill="#D6F1ED" transform="translate(26,8)"/>
<path d="M0 0 C0.66 0 1.32 0 2 0 C2 2.64 2 5.28 2 8 C0.35 8.33 -1.3 8.66 -3 9 C-3.33 7.35 -3.66 5.7 -4 4 C-2.35 4 -0.7 4 1 4 C0.67 2.68 0.34 1.36 0 0 Z " fill="#A67C61" transform="translate(31,13)"/>
<path d="M0 0 C0.99 0 1.98 0 3 0 C4 3 4 3 3 6 C2.34 6 1.68 6 1 6 C0.67 6.99 0.34 7.98 0 9 C0 6.03 0 3.06 0 0 Z " fill="#E0C6AB" transform="translate(22,17)"/>
<path d="M0 0 C0.66 0 1.32 0 2 0 C2.33 1.32 2.66 2.64 3 4 C3.66 4 4.32 4 5 4 C5.33 2.68 5.66 1.36 6 0 C6 2.64 6 5.28 6 8 C5.67 7.01 5.34 6.02 5 5 C3.35 5 1.7 5 0 5 C0 3.35 0 1.7 0 0 Z " fill="#FDE6C6" transform="translate(25,18)"/>
<path d="M0 0 C0 0.66 0 1.32 0 2 C1.98 2 3.96 2 6 2 C5.67 2.66 5.34 3.32 5 4 C2.69 4 0.38 4 -2 4 C-2 3.34 -2 2.68 -2 2 C-2.99 1.67 -3.98 1.34 -5 1 C-2 0 -2 0 0 0 Z " fill="#A9B3AD" transform="translate(12,30)"/>
<path d="M0 0 C0.33 0.66 0.66 1.32 1 2 C0.67 2.99 0.34 3.98 0 5 C-1.65 5 -3.3 5 -5 5 C-4.1875 3.0625 -4.1875 3.0625 -3 1 C-2.01 0.67 -1.02 0.34 0 0 Z " fill="#67A4A8" transform="translate(23,30)"/>
<path d="M0 0 C0.99 0.33 1.98 0.66 3 1 C2.67 2.32 2.34 3.64 2 5 C1.01 5 0.02 5 -1 5 C-1.33 3.68 -1.66 2.36 -2 1 C-1.34 0.67 -0.68 0.34 0 0 Z " fill="#E8C9AE" transform="translate(26,24)"/>
<path d="M0 0 C-0.33 0.66 -0.66 1.32 -1 2 C-1.99 2.33 -2.98 2.66 -4 3 C-4.66 3.66 -5.32 4.32 -6 5 C-6 4.34 -6 3.68 -6 3 C-6.66 2.67 -7.32 2.34 -8 2 C-4.77208445 -0.1519437 -3.71599191 -0.20086443 0 0 Z " fill="#A46A40" transform="translate(29,11)"/>
<path d="M0 0 C2.64 0 5.28 0 8 0 C7.67 0.99 7.34 1.98 7 3 C4.69 2.67 2.38 2.34 0 2 C0 1.34 0 0.68 0 0 Z " fill="#9FB0AF" transform="translate(26,6)"/>
<path d="" fill="#000000" transform="translate(0,0)"/>
<path d="" fill="#000000" transform="translate(0,0)"/>
<path d="" fill="#000000" transform="translate(0,0)"/>
<path d="" fill="#000000" transform="translate(0,0)"/>
<path d="" fill="#000000" transform="translate(0,0)"/>
<path d="" fill="#000000" transform="translate(0,0)"/>
<path d="" fill="#000000" transform="translate(0,0)"/>
<path d="" fill="#000000" transform="translate(0,0)"/>
<path d="" fill="#000000" transform="translate(0,0)"/>
<path d="" fill="#000000" transform="translate(0,0)"/>
<path d="" fill="#000000" transform="translate(0,0)"/>
<path d="" fill="#000000" transform="translate(0,0)"/>
<path d="" fill="#000000" transform="translate(0,0)"/>
<path d="" fill="#000000" transform="translate(0,0)"/>
<path d="" fill="#000000" transform="translate(0,0)"/>
<path d="" fill="#000000" transform="translate(0,0)"/>
<path d="" fill="#000000" transform="translate(0,0)"/>
<path d="" fill="#000000" transform="translate(0,0)"/>
<path d="" fill="#000000" transform="translate(0,0)"/>
<path d="" fill="#000000" transform="translate(0,0)"/>
<path d="" fill="#000000" transform="translate(0,0)"/>
<path d="" fill="#000000" transform="translate(0,0)"/>
<path d="" fill="#000000" transform="translate(0,0)"/>
<path d="" fill="#000000" transform="translate(0,0)"/>
<path d="" fill="#000000" transform="translate(0,0)"/>
<path d="" fill="#000000" transform="translate(0,0)"/>
<path d="" fill="#000000" transform="translate(0,0)"/>
<path d="" fill="#000000" transform="translate(0,0)"/>
</svg>
